<?xml version="1.0" encoding="UTF-8"?>
<svg xmlns="http://www.w3.org/2000/svg" viewBox="0 0 1020 460" font-family="Segoe UI, sans-serif">
  <defs>
    <marker id="arrow" viewBox="0 0 10 10" refX="9" refY="5" markerWidth="6" markerHeight="6" orient="auto-start-reverse">
      <path d="M0,0 L10,5 L0,10 z" fill="#aaa"/>
    </marker>
  </defs>

  <rect width="100%" height="100%" fill="#1a1a1a"/>

  <text x="510" y="22" text-anchor="middle" fill="#ddd" font-size="16" font-weight="bold">YAEngine Render Pipeline</text>

  <!-- Row 1: 0..4 (LR) -->
  <g>
    <rect x="30"  y="50" width="160" height="60" rx="8" fill="#2a4d7a" stroke="#88b" stroke-width="2"/>
    <text x="110" y="85" text-anchor="middle" fill="white" font-size="15" font-weight="bold">0. Shadows</text>

    <rect x="230" y="50" width="160" height="60" rx="8" fill="#2a4d7a" stroke="#88b" stroke-width="2"/>
    <text x="310" y="85" text-anchor="middle" fill="white" font-size="15" font-weight="bold">1. DepthPre</text>

    <rect x="430" y="50" width="160" height="60" rx="8" fill="#2a4d7a" stroke="#88b" stroke-width="2"/>
    <text x="510" y="85" text-anchor="middle" fill="white" font-size="15" font-weight="bold">2. GBuffer</text>

    <rect x="630" y="50" width="160" height="60" rx="8" fill="#2a4d7a" stroke="#88b" stroke-width="2"/>
    <text x="710" y="85" text-anchor="middle" fill="white" font-size="15" font-weight="bold">3. SSAO</text>

    <rect x="830" y="50" width="160" height="60" rx="8" fill="#2a4d7a" stroke="#88b" stroke-width="2"/>
    <text x="910" y="85" text-anchor="middle" fill="white" font-size="15" font-weight="bold">4. BlurH</text>
  </g>

  <!-- Row 2: 5..9 (RL visually: 5 right, 9 left) -->
  <g>
    <rect x="830" y="190" width="160" height="60" rx="8" fill="#2a4d7a" stroke="#88b" stroke-width="2"/>
    <text x="910" y="225" text-anchor="middle" fill="white" font-size="15" font-weight="bold">5. BlurV</text>

    <rect x="630" y="190" width="160" height="60" rx="8" fill="#6a2a7a" stroke="#b8b" stroke-width="2"/>
    <text x="710" y="225" text-anchor="middle" fill="white" font-size="15" font-weight="bold">6. LightCull</text>

    <rect x="430" y="190" width="160" height="60" rx="8" fill="#2a4d7a" stroke="#88b" stroke-width="2"/>
    <text x="510" y="225" text-anchor="middle" fill="white" font-size="15" font-weight="bold">7. Deferred</text>

    <rect x="230" y="190" width="160" height="60" rx="8" fill="#6a2a7a" stroke="#b8b" stroke-width="2"/>
    <text x="310" y="225" text-anchor="middle" fill="white" font-size="15" font-weight="bold">8. HiZ</text>

    <rect x="30"  y="190" width="160" height="60" rx="8" fill="#2a4d7a" stroke="#88b" stroke-width="2"/>
    <text x="110" y="225" text-anchor="middle" fill="white" font-size="15" font-weight="bold">9. SSR</text>
  </g>

  <!-- Row 3: 10..14 (LR) -->
  <g>
    <rect x="30"  y="330" width="160" height="60" rx="8" fill="#6a2a7a" stroke="#b8b" stroke-width="2"/>
    <text x="110" y="365" text-anchor="middle" fill="white" font-size="15" font-weight="bold">10. Bloom</text>

    <rect x="230" y="330" width="160" height="60" rx="8" fill="#2a4d7a" stroke="#88b" stroke-width="2"/>
    <text x="310" y="365" text-anchor="middle" fill="white" font-size="15" font-weight="bold">11. TAA</text>

    <rect x="430" y="330" width="160" height="60" rx="8" fill="#6a2a7a" stroke="#b8b" stroke-width="2"/>
    <text x="510" y="365" text-anchor="middle" fill="white" font-size="15" font-weight="bold">12. Histogram</text>

    <rect x="630" y="330" width="160" height="60" rx="8" fill="#6a2a7a" stroke="#b8b" stroke-width="2"/>
    <text x="710" y="365" text-anchor="middle" fill="white" font-size="15" font-weight="bold">13. Exposure</text>

    <rect x="830" y="330" width="160" height="60" rx="8" fill="#2a4d7a" stroke="#88b" stroke-width="2"/>
    <text x="910" y="365" text-anchor="middle" fill="white" font-size="15" font-weight="bold">14. Swapchain</text>
  </g>

  <!-- Row 1 horizontal arrows -->
  <line x1="190" y1="80" x2="226" y2="80" stroke="#aaa" stroke-width="2" marker-end="url(#arrow)"/>
  <line x1="390" y1="80" x2="426" y2="80" stroke="#aaa" stroke-width="2" marker-end="url(#arrow)"/>
  <line x1="590" y1="80" x2="626" y2="80" stroke="#aaa" stroke-width="2" marker-end="url(#arrow)"/>
  <line x1="790" y1="80" x2="826" y2="80" stroke="#aaa" stroke-width="2" marker-end="url(#arrow)"/>

  <!-- Row 1 -> Row 2 (4 -> 5, on the right side) -->
  <line x1="910" y1="110" x2="910" y2="186" stroke="#aaa" stroke-width="2" marker-end="url(#arrow)"/>

  <!-- Row 2 horizontal arrows (RL visually) -->
  <line x1="830" y1="220" x2="794" y2="220" stroke="#aaa" stroke-width="2" marker-end="url(#arrow)"/>
  <line x1="630" y1="220" x2="594" y2="220" stroke="#aaa" stroke-width="2" marker-end="url(#arrow)"/>
  <line x1="430" y1="220" x2="394" y2="220" stroke="#aaa" stroke-width="2" marker-end="url(#arrow)"/>
  <line x1="230" y1="220" x2="194" y2="220" stroke="#aaa" stroke-width="2" marker-end="url(#arrow)"/>

  <!-- Row 2 -> Row 3 (9 -> 10, on the left side) -->
  <line x1="110" y1="250" x2="110" y2="326" stroke="#aaa" stroke-width="2" marker-end="url(#arrow)"/>

  <!-- Row 3 horizontal arrows -->
  <line x1="190" y1="360" x2="226" y2="360" stroke="#aaa" stroke-width="2" marker-end="url(#arrow)"/>
  <line x1="390" y1="360" x2="426" y2="360" stroke="#aaa" stroke-width="2" marker-end="url(#arrow)"/>
  <line x1="590" y1="360" x2="626" y2="360" stroke="#aaa" stroke-width="2" marker-end="url(#arrow)"/>
  <line x1="790" y1="360" x2="826" y2="360" stroke="#aaa" stroke-width="2" marker-end="url(#arrow)"/>

  <!-- Legend -->
  <g transform="translate(30, 420)">
    <rect x="0"  y="0" width="18" height="18" rx="3" fill="#2a4d7a" stroke="#88b" stroke-width="2"/>
    <text x="26" y="14" fill="#ddd" font-size="13">raster / fragment pass</text>

    <rect x="220" y="0" width="18" height="18" rx="3" fill="#6a2a7a" stroke="#b8b" stroke-width="2"/>
    <text x="246" y="14" fill="#ddd" font-size="13">compute pass</text>
  </g>
</svg>